<svg id="egGOqtFx7Yb1" xmlns="http://www.w3.org/2000/svg" xmlns:xlink="http://www.w3.org/1999/xlink" viewBox="0 0 16 16" shape-rendering="geometricPrecision" text-rendering="geometricPrecision" project-id="54045c7e2753475ab40e994db2c7c2f7" export-id="4786706b7c1e44d39767193bff961d36" cached="false"><path d="M8.636,3.5c0-.276142-.223858-.5-.5-.5L1.5,3C0.671573,3,0,3.671573,0,4.5v10c0,.828427.671573,1.5,1.5,1.5h10c.828427,0,1.5-.671573,1.5-1.5v-6.636c0-.276142-.223858-.5-.5-.5s-.5.223858-.5.5v6.636c0,.276142-.223858.5-.5.5h-10c-.276142,0-.5-.223858-.5-.5v-10c0-.276142.223858-.5.5-.5h6.636c.276142,0,.5-.223858.5-.5Z" fill="#fff" fill-rule="evenodd"/><path d="M16,0.5c0-.276142-.223858-.5-.5-.5h-5c-.276142,0-.5.223858-.5.5s.223858.5.5.5h3.793L6.146,9.146c-.195509.195509-.195509.512491,0,.708s.512491.195509.708,0L15,1.707v3.793c0,.276142.223858.5.5.5s.5-.223858.5-.5v-5Z" fill="#fff" fill-rule="evenodd"/></svg>
